HIERARCHY
ROOT Pelvis
{
	OFFSET 0.000000 0.000000 0.000000
	CHANNELS 6 Xposition Yposition Zposition Xrotation Yrotation Zrotation
	JOINT LeftUpLeg_virtual
	{
		OFFSET 0.000000 0.000000 0.000000
		CHANNELS 3 Xrotation Yrotation Zrotation
		JOINT LeftUpLeg
		{
			OFFSET 18.735201 -5.666702 -4.541200
			CHANNELS 3 Xrotation Yrotation Zrotation
			JOINT LeftLeg
			{
				OFFSET -0.021200 -31.938179 0.493100
				CHANNELS 3 Xrotation Yrotation Zrotation
				JOINT LeftFoot
				{
					OFFSET 0.021200 -31.938179 -4.336299
					CHANNELS 3 Xrotation Yrotation Zrotation
					JOINT LeftToeBase
					{
						OFFSET 0.943001 -26.722000 15.023500
						CHANNELS 3 Xrotation Yrotation Zrotation
						End Site
						{
							OFFSET 0 0 0
						}
					}
				}
			}
		}
	}
	JOINT RightUpLeg_virtual
	{
		OFFSET 0.000000 0.000000 0.000000
		CHANNELS 3 Xrotation Yrotation Zrotation
		JOINT RightUpLeg
		{
			OFFSET -18.735201 -5.666702 -4.541200
			CHANNELS 3 Xrotation Yrotation Zrotation
			JOINT RightLeg
			{
				OFFSET 0.018946 -31.938133 0.493100
				CHANNELS 3 Xrotation Yrotation Zrotation
				JOINT RightFoot
				{
					OFFSET -0.018946 -31.938126 -4.336299
					CHANNELS 3 Xrotation Yrotation Zrotation
					JOINT RightToeBase
					{
						OFFSET -0.943001 -26.722004 15.023500
						CHANNELS 3 Xrotation Yrotation Zrotation
						End Site
						{
							OFFSET 0 0 0
						}
					}
				}
			}
		}
	}
	JOINT Hips_virtual
	{
		OFFSET 0.000000 0.000000 0.000000
		CHANNELS 3 Xrotation Yrotation Zrotation
		JOINT Hips
		{
			OFFSET -0.000000 -0.000000 -0.000000
			CHANNELS 3 Xrotation Yrotation Zrotation
			JOINT Spine
			{
				OFFSET 0.000000 10.199997 -0.299500
				CHANNELS 3 Xrotation Yrotation Zrotation
				JOINT Spine1
				{
					OFFSET 0.000000 11.900002 -1.516600
					CHANNELS 3 Xrotation Yrotation Zrotation
					JOINT Spine2
					{
						OFFSET 0.000000 13.600006 -2.842500
						CHANNELS 3 Xrotation Yrotation Zrotation
						JOINT Neck_virtual
						{
							OFFSET 0.000000 0.000000 0.000000
							CHANNELS 3 Xrotation Yrotation Zrotation
							JOINT Neck
							{
								OFFSET 0.000000 9.624100 -2.890100
								CHANNELS 3 Xrotation Yrotation Zrotation
								JOINT Head
								{
									OFFSET 0.000000 14.068802 -1.351900
									CHANNELS 3 Xrotation Yrotation Zrotation
									End Site
									{
										OFFSET 0 0 0
									}
								}
							}
						}
						JOINT LeftShoulder_virtual
						{
							OFFSET 0.000000 0.000000 0.000000
							CHANNELS 3 Xrotation Yrotation Zrotation
							JOINT LeftShoulder
							{
								OFFSET 15.263000 10.923401 -0.547700
								CHANNELS 3 Xrotation Yrotation Zrotation
								JOINT LeftArm
								{
									OFFSET 25.438599 -2.830597 -13.032500
									CHANNELS 3 Xrotation Yrotation Zrotation
									JOINT LeftForeArm
									{
										OFFSET 29.960503 0.000000 0.000000
										CHANNELS 3 Xrotation Yrotation Zrotation
										JOINT LeftHand
										{
											OFFSET 27.849251 0.000000 0.000000
											CHANNELS 3 Xrotation Yrotation Zrotation
											End Site
											{
												OFFSET 0 0 0
											}
										}
									}
								}
							}
						}
						JOINT RightShoulder_virtual
						{
							OFFSET 0.000000 0.000000 0.000000
							CHANNELS 3 Xrotation Yrotation Zrotation
							JOINT RightShoulder
							{
								OFFSET -15.263000 10.923401 -0.547700
								CHANNELS 3 Xrotation Yrotation Zrotation
								JOINT RightArm
								{
									OFFSET -25.438599 -2.830597 -13.032500
									CHANNELS 3 Xrotation Yrotation Zrotation
									JOINT RightForeArm
									{
										OFFSET -29.960503 0.000000 0.000000
										CHANNELS 3 Xrotation Yrotation Zrotation
										JOINT RightHand
										{
											OFFSET -27.849251 0.000000 0.000000
											CHANNELS 3 Xrotation Yrotation Zrotation
											End Site
											{
												OFFSET 0 0 0
											}
										}
									}
								}
							}
						}
					}
				}
			}
		}
	}
}
MOTION
Frames: 12
Frame Time: 0.03333333
10.000757 90.398895 1.521648 0.000000 0.000000 0.000000 4.157823 -46.527986 3.418673 -17.578880 16.310418 4.253658 37.881807 23.772361 3.362396 -16.697622 22.435783 -13.823458 0.000000 0.000000 0.000000 4.157823 -46.527986 3.418673 -18.077421 -39.800820 -20.778919 34.361903 -11.295471 -2.216313 -18.499330 -8.854277 16.767005 0.000000 0.000000 0.000000 4.157823 -46.527986 3.418673 0.000000 0.000002 0.000000 9.998616 -5.760611 2.136002 3.056892 -1.359244 -0.696759 0.000000 0.000000 0.000000 -8.919068 -4.431381 -1.692195 -1.679542 -1.080119 -0.819566 0.000000 0.000000 0.000000 -8.919068 -4.431381 -1.692195 -0.955896 -3.915914 -2.538331 13.282570 6.823607 -62.263595 -0.021053 -42.236893 -0.010390 0.000000 0.000000 0.000000 -8.919068 -4.431381 -1.692195 -0.771037 0.311215 0.884123 3.113849 10.823035 70.823837 0.587849 47.471037 -0.255419 0.000000 0.000000 0.000000 
9.709345 90.413147 1.215963 0.000000 0.000000 0.000000 3.940873 -48.240561 3.499676 -16.479208 16.708692 4.202277 37.460695 24.744934 3.312877 -16.748708 22.890402 -14.487398 0.000000 0.000000 0.000000 3.940873 -48.240561 3.499676 -18.856102 -39.441590 -21.444750 34.832373 -10.997657 -2.201663 -17.936560 -8.644906 16.578693 0.000000 0.000000 0.000000 3.940873 -48.240561 3.499676 0.000000 0.000000 0.000000 9.926385 -5.780566 2.113521 2.967046 -1.211536 -0.652811 0.000000 0.000000 0.000000 -9.020275 -4.366686 -1.601919 -1.677045 -0.996354 -0.850414 0.000000 0.000000 0.000000 -9.020275 -4.366686 -1.601919 -0.878237 -4.226535 -2.233010 13.531508 6.780617 -62.153021 -0.020242 -42.480625 -0.009959 0.000000 0.000000 0.000000 -9.020275 -4.366686 -1.601919 -0.846759 0.820774 0.916898 2.989855 9.871421 70.799528 0.512261 47.191061 -0.227951 0.000000 0.000000 0.000000 
9.412379 90.466263 0.861904 0.000000 0.000000 0.000000 3.766878 -49.800323 3.525696 -16.201412 17.063325 4.444517 37.833436 25.944282 3.301209 -16.579869 22.793086 -14.830709 0.000000 0.000000 0.000000 3.766878 -49.800323 3.525696 -19.517908 -39.070854 -21.631271 35.406645 -10.335155 -2.177854 -18.363881 -7.981193 15.891212 0.000000 0.000000 0.000000 3.766878 -49.800323 3.525696 0.000000 -0.000001 0.000000 9.859124 -5.733456 2.077304 2.895061 -1.071956 -0.562727 0.000000 0.000000 0.000000 -9.100046 -4.316076 -1.464393 -1.675982 -0.936417 -0.865437 0.000000 0.000000 0.000000 -9.100046 -4.316076 -1.464393 -0.800620 -4.500674 -1.933183 13.652189 6.640058 -62.119614 -0.019420 -42.599798 -0.009510 0.000000 0.000000 0.000000 -9.100046 -4.316076 -1.464393 -0.922054 1.266276 0.964827 2.893477 8.881782 70.701569 0.416251 46.895836 -0.192444 0.000000 0.000000 0.000000 
9.115842 90.542427 0.454870 0.000000 0.000000 0.000000 3.610686 -51.195741 3.472595 -16.923254 17.191856 5.519544 39.405390 26.704047 3.242334 -15.288149 22.409750 -16.112667 0.000000 0.000000 0.000000 3.610686 -51.195741 3.472595 -19.776683 -38.646108 -21.357223 35.695743 -9.902804 -2.168237 -18.670406 -7.459590 15.220324 0.000000 0.000000 0.000000 3.610686 -51.195741 3.472595 0.000000 0.000000 0.000000 9.796672 -5.615071 2.024831 2.839595 -0.944634 -0.432629 0.000000 0.000000 0.000000 -9.159907 -4.281929 -1.286582 -1.672977 -0.900564 -0.864004 0.000000 0.000000 0.000000 -9.159907 -4.281929 -1.286582 -0.726154 -4.749509 -1.633529 13.608984 6.402161 -62.096651 -0.018548 -42.554056 -0.009106 0.000000 0.000000 0.000000 -9.159907 -4.281929 -1.286582 -0.995144 1.645283 1.031886 2.815502 7.867679 70.540090 0.304936 46.539488 -0.149991 0.000000 0.000000 0.000000 
8.818987 90.626884 0.002352 0.000000 0.000000 0.000000 3.436965 -52.441421 3.314778 -17.949693 17.214459 6.907065 41.217603 27.093544 3.130114 -13.835119 21.759492 -17.260187 0.000000 0.000000 0.000000 3.436965 -52.441421 3.314778 -19.675530 -38.166909 -20.688955 35.774263 -9.673783 -2.170623 -18.894084 -7.075361 14.575596 0.000000 0.000000 0.000000 3.436965 -52.441421 3.314778 0.000000 -0.000001 0.000000 9.739341 -5.417122 1.962276 2.798248 -0.834753 -0.276275 0.000000 0.000000 0.000000 -9.202964 -4.266250 -1.083140 -1.666040 -0.886360 -0.846363 0.000000 0.000000 0.000000 -9.202964 -4.266250 -1.083140 -0.657699 -4.987812 -1.334226 13.409532 6.067831 -62.089937 -0.017620 -42.345383 -0.008660 0.000000 0.000000 0.000000 -9.202964 -4.266250 -1.083140 -1.064624 1.958810 1.120593 2.745212 6.847610 70.332261 0.188328 46.077962 -0.103745 0.000000 0.000000 0.000000 
8.521244 90.712677 -0.475353 0.000000 0.000000 0.000000 3.211543 -53.575082 3.051316 -19.099845 17.138043 8.498035 43.046571 26.935657 2.946467 -12.290739 20.966924 -18.097635 0.000000 0.000000 0.000000 3.211543 -53.575082 3.051316 -19.291663 -37.608876 -19.740143 35.714506 -9.608738 -2.182394 -19.062728 -6.813862 13.967636 0.000000 0.000000 0.000000 3.211543 -53.575082 3.051316 0.000000 -0.000001 0.000000 9.686783 -5.129826 1.886255 2.769439 -0.747863 -0.110742 0.000000 0.000000 0.000000 -9.231854 -4.270543 -0.872009 -1.654491 -0.889755 -0.814653 0.000000 0.000000 0.000000 -9.231854 -4.270543 -0.872009 -0.597248 -5.228942 -1.041852 13.072935 5.641164 -62.093386 -0.016754 -41.984005 -0.008173 0.000000 0.000000 0.000000 -9.231854 -4.270543 -0.872009 -1.129704 2.212047 1.229378 2.675078 5.839530 70.097221 0.079160 45.487499 -0.058582 0.000000 0.000000 0.000000 
8.221434 90.792747 -0.954943 0.000000 0.000000 0.000000 2.911881 -54.643412 2.696900 -20.207017 16.992857 10.164140 44.683719 26.075400 2.682721 -10.715158 20.174227 -18.482174 0.000000 0.000000 0.000000 2.911881 -54.643412 2.696900 -18.728087 -36.940101 -18.640717 35.600633 -9.664590 -2.201353 -19.205336 -6.655394 13.407164 0.000000 0.000000 0.000000 2.911881 -54.643412 2.696900 0.000000 0.000002 0.000000 9.639753 -4.742891 1.795213 2.753585 -0.689212 0.049079 0.000000 0.000000 0.000000 -9.247054 -4.296584 -0.668941 -1.638265 -0.907702 -0.768900 0.000000 0.000000 0.000000 -9.247054 -4.296584 -0.668941 -0.545986 -5.489040 -0.767229 12.759026 5.054174 -62.063238 -0.015834 -41.557815 -0.007783 0.000000 0.000000 0.000000 -9.247054 -4.296584 -0.668941 -1.190160 2.414462 1.351214 2.605521 4.855550 69.851962 -0.010192 44.776589 -0.019787 0.000000 0.000000 0.000000 
7.907866 90.881226 -1.405157 0.000000 0.000000 0.000000 2.526818 -55.687775 2.288040 -21.599176 16.744417 11.878291 46.306135 24.543733 2.355643 -9.390597 19.102815 -18.252960 0.000000 0.000000 0.000000 2.526818 -55.687775 2.288040 -18.027654 -36.112177 -17.483365 35.427163 -9.817125 -2.226110 -19.308706 -6.597734 12.910961 0.000000 0.000000 0.000000 2.526818 -55.687775 2.288040 0.000000 -0.000001 0.000000 9.601737 -4.213259 1.673321 2.758854 -0.674160 0.191250 0.000000 0.000000 0.000000 -9.240040 -4.354645 -0.487647 -1.745756 -0.944132 -0.701824 0.000000 0.000000 0.000000 -9.240040 -4.354645 -0.487647 -0.506792 -5.780022 -0.538030 12.542955 4.469183 -61.983325 -0.015010 -41.273819 -0.007433 0.000000 0.000000 0.000000 -9.240040 -4.354645 -0.487647 -1.244804 2.569916 1.471829 2.575593 3.886157 69.584697 -0.068324 43.979492 0.010164 0.000000 0.000000 0.000000 
7.581259 90.974533 -1.842312 0.000000 0.000000 0.000000 2.090370 -56.719421 1.850074 -23.054337 16.462300 13.508921 47.771552 22.754266 2.014471 -8.251249 17.890586 -17.723234 0.000000 0.000000 0.000000 2.090370 -56.719421 1.850074 -17.283362 -35.216128 -16.334916 35.221055 -10.015974 -2.251293 -19.396072 -6.568670 12.449051 0.000000 0.000000 0.000000 2.090370 -56.719421 1.850074 0.000000 0.000000 0.000000 9.568696 -3.637389 1.545140 2.770602 -0.671568 0.326623 0.000000 0.000000 0.000000 -9.227875 -4.422196 -0.314615 -1.800062 -0.972861 -0.654846 0.000000 0.000000 0.000000 -9.227875 -4.422196 -0.314615 -0.470712 -6.077998 -0.334522 12.497569 3.704406 -61.881097 -0.014313 -41.045212 -0.007149 0.000000 0.000000 0.000000 -9.227875 -4.422196 -0.314615 -1.297569 2.709923 1.587315 2.535645 2.934527 69.305014 -0.101585 43.108636 0.028364 0.000000 0.000000 0.000000 
7.238669 91.108185 -2.240625 0.000000 0.000000 0.000000 1.613470 -57.740527 1.414556 -24.438543 16.201772 14.927109 48.808672 20.795904 1.668769 -7.351432 16.606140 -16.921592 0.000000 0.000000 0.000000 1.613470 -57.740527 1.414556 -16.419278 -34.184421 -15.165817 34.836635 -10.287134 -2.276083 -19.379610 -6.609633 12.034119 0.000000 0.000000 0.000000 1.613470 -57.740527 1.414556 0.000000 0.000004 0.000000 9.545423 -2.977895 1.402874 2.797759 -0.696182 0.446946 0.000000 0.000000 0.000000 -9.198965 -4.505709 -0.161228 -1.738808 -0.987912 -0.644534 0.000000 0.000000 0.000000 -9.198965 -4.505709 -0.161228 -0.443685 -6.380286 -0.208223 12.634072 2.854927 -61.717118 -0.013664 -40.959391 -0.006844 0.000000 0.000000 0.000000 -9.198965 -4.505709 -0.161228 -1.344717 2.819729 1.678170 2.458473 2.033198 69.023529 -0.103935 41.970198 0.030982 0.000000 0.000000 0.000000 
6.882683 91.264923 -2.613483 0.000000 0.000000 0.000000 1.142429 -58.731465 1.005374 -25.874594 15.933382 16.199831 49.716264 18.770458 1.334241 -6.480617 15.257504 -15.995960 0.000000 0.000000 0.000000 1.142429 -58.731465 1.005374 -15.500102 -33.056429 -13.995280 34.329712 -10.622073 -2.301040 -19.297204 -6.705113 11.656685 0.000000 0.000000 0.000000 1.142429 -58.731465 1.005374 0.000000 0.000001 0.000000 9.525752 -2.341762 1.266726 2.822177 -0.692336 0.558006 0.000000 0.000000 0.000000 -9.171768 -4.536736 -0.014720 -1.679941 -0.994752 -0.668272 0.000000 0.000000 0.000000 -9.171768 -4.536736 -0.014720 -0.423513 -6.661554 -0.166525 12.767142 1.972667 -61.537914 -0.013040 -40.837182 -0.006719 0.000000 0.000000 0.000000 -9.171768 -4.536736 -0.014720 -1.387231 2.908509 1.741542 2.420088 1.162801 68.779500 -0.089644 40.764522 0.023800 0.000000 0.000000 0.000000 
6.513105 91.427414 -2.955923 0.000000 0.000000 0.000000 0.722263 -59.689344 0.654992 -27.376450 15.653885 17.334083 50.514624 16.699963 1.014246 -5.635581 13.868052 -14.983560 0.000000 0.000000 0.000000 0.722263 -59.689344 0.654992 -14.587819 -31.837499 -12.853304 33.761782 -11.011284 -2.327174 -19.178965 -6.854049 11.322339 0.000000 0.000000 0.000000 0.722263 -59.689344 0.654992 0.000000 -0.000001 0.000000 9.507529 -1.739141 1.143698 2.839425 -0.657255 0.669442 0.000000 0.000000 0.000000 -9.150040 -4.534865 0.133083 -1.623751 -0.992777 -0.722330 0.000000 0.000000 0.000000 -9.150040 -4.534865 0.133083 -0.400512 -6.861635 -0.191045 12.838051 1.038834 -61.359346 -0.012536 -40.639455 -0.006495 0.000000 0.000000 0.000000 -9.150040 -4.534865 0.133083 -1.424594 2.973487 1.777672 2.471818 0.375356 68.518149 -0.073433 39.589545 0.015649 0.000000 0.000000 0.000000 
